<svg xmlns="http://www.w3.org/2000/svg" viewBox="0 0 320 220" fill="none" role="img" aria-hidden="true">
  <defs>
    <linearGradient id="deep" x1="0" y1="0" x2="0" y2="1">
      <stop offset="0" stop-color="#8B5CF6"/>
      <stop offset="1" stop-color="#6D28D9"/>
    </linearGradient>
    <linearGradient id="soft" x1="0" y1="0" x2="1" y2="1">
      <stop offset="0" stop-color="#C4B5FD"/>
      <stop offset="1" stop-color="#8B5CF6"/>
    </linearGradient>
    <linearGradient id="warm" x1="0" y1="0" x2="0" y2="1">
      <stop offset="0" stop-color="#FBBF24"/>
      <stop offset="1" stop-color="#F59E0B"/>
    </linearGradient>
  </defs>

  <!-- shared stage: halo + ground, identical on every module -->
  <ellipse cx="160" cy="102" rx="106" ry="88" fill="#8B5CF6" opacity=".10"/>
  <ellipse cx="160" cy="192" rx="90" ry="11" fill="#6D28D9" opacity=".15"/>

  <g stroke-width="3" stroke-linecap="round" stroke-linejoin="round">

    <path d="M56 70h44l12 16h96a12 12 0 0 1 12 12v58a12 12 0 0 1-12 12H56a12 12 0 0 1-12-12V82a12 12 0 0 1 12-12z" fill="#EDE9FE" stroke="#6D28D9" transform="translate(28 4)"/>
    <rect x="98" y="102" width="46" height="32" rx="8" fill="url(#deep)" stroke="none"/>
    <rect x="152" y="102" width="46" height="32" rx="8" fill="#FFFFFF" stroke="#8B5CF6" stroke-width="2.5"/>
    <rect x="98" y="138" width="46" height="32" rx="8" fill="#FFFFFF" stroke="#8B5CF6" stroke-width="2.5"/>
    <rect x="152" y="138" width="46" height="32" rx="8" fill="url(#soft)" stroke="none"/>
    <circle cx="175" cy="118" r="7" fill="#C4B5FD" stroke="none"/>
    <circle cx="121" cy="154" r="7" fill="#C4B5FD" stroke="none"/>
    <rect x="212" y="60" width="52" height="38" rx="10" fill="url(#warm)" stroke="none"/>
    <path d="M224 79h28" stroke="#FFFFFF" stroke-width="3.5" opacity=".85"/>

    <circle cx="58" cy="46" r="5" fill="#C4B5FD" stroke="none" opacity=".85"/>
    <circle cx="276" cy="168" r="4" fill="#8B5CF6" stroke="none" opacity=".6"/>
    <path d="M250 58l4 8-8-4z" fill="#F59E0B" stroke="none" opacity=".9"/>
  </g>
</svg>
