<svg xmlns="http://www.w3.org/2000/svg" viewBox="0 0 320 220" fill="none" role="img" aria-hidden="true"><defs><linearGradient id="deep" x1="0" y1="0" x2="0" y2="1"><stop offset="0" stop-color="#8B5CF6"/><stop offset="1" stop-color="#6D28D9"/></linearGradient><linearGradient id="soft" x1="0" y1="0" x2="1" y2="1"><stop offset="0" stop-color="#C4B5FD"/><stop offset="1" stop-color="#8B5CF6"/></linearGradient><linearGradient id="warm" x1="0" y1="0" x2="0" y2="1"><stop offset="0" stop-color="#FBBF24"/><stop offset="1" stop-color="#F59E0B"/></linearGradient></defs><ellipse cx="160" cy="102" rx="106" ry="88" fill="#8B5CF6" opacity=".10"/><ellipse cx="160" cy="192" rx="90" ry="11" fill="#6D28D9" opacity=".15"/><g stroke-width="3" stroke-linecap="round" stroke-linejoin="round"><path d="M104 96l50-24 50 24-50 24z" fill="#C4B5FD" stroke="#6D28D9"/><path d="M104 96v50l50 24v-50z" fill="url(#soft)" stroke="#6D28D9"/><path d="M204 96v50l-50 24v-50z" fill="url(#deep)" stroke="#6D28D9"/><path d="M129 84l50 24" stroke="#6D28D9" stroke-width="2.5" opacity=".5"/><rect x="62" y="122" width="44" height="42" rx="8" fill="#FFFFFF" stroke="#8B5CF6"/><path d="M62 138h44" stroke="#C4B5FD" stroke-width="2.5"/><rect x="212" y="112" width="42" height="40" rx="8" fill="#FFFFFF" stroke="#8B5CF6"/><path d="M212 128h42" stroke="#C4B5FD" stroke-width="2.5"/><path d="M214 62l26 6 6 26-12 12-32-32z" fill="url(#warm)" stroke="none"/><circle cx="228" cy="76" r="4.5" fill="#FFFFFF" stroke="none"/><circle cx="276" cy="46" r="5" fill="#C4B5FD" stroke="none" opacity=".85"/><circle cx="52" cy="168" r="4" fill="#8B5CF6" stroke="none" opacity=".6"/><path d="M50 58l4 8-8-4z" fill="#F59E0B" stroke="none" opacity=".9"/></g></svg>