<svg xmlns="http://www.w3.org/2000/svg" viewBox="0 0 320 220" fill="none" role="img" aria-hidden="true">
  <defs>
    <linearGradient id="deep" x1="0" y1="0" x2="0" y2="1">
      <stop offset="0" stop-color="#8B5CF6"/>
      <stop offset="1" stop-color="#6D28D9"/>
    </linearGradient>
    <linearGradient id="soft" x1="0" y1="0" x2="1" y2="1">
      <stop offset="0" stop-color="#C4B5FD"/>
      <stop offset="1" stop-color="#8B5CF6"/>
    </linearGradient>
    <linearGradient id="warm" x1="0" y1="0" x2="0" y2="1">
      <stop offset="0" stop-color="#FBBF24"/>
      <stop offset="1" stop-color="#F59E0B"/>
    </linearGradient>
  </defs>

  <!-- shared stage: halo + ground, identical on every module -->
  <ellipse cx="160" cy="102" rx="106" ry="88" fill="#8B5CF6" opacity=".10"/>
  <ellipse cx="160" cy="192" rx="90" ry="11" fill="#6D28D9" opacity=".15"/>

  <g stroke-width="3" stroke-linecap="round" stroke-linejoin="round">

    <rect x="62" y="150" width="196" height="10" rx="5" fill="#6D28D9" stroke="none"/>
    <rect x="62" y="96" width="196" height="10" rx="5" fill="#6D28D9" stroke="none" opacity=".55"/>
    <rect x="78" y="112" width="42" height="38" rx="7" fill="#FFFFFF" stroke="#8B5CF6"/>
    <rect x="128" y="120" width="34" height="30" rx="7" fill="url(#soft)" stroke="none"/>
    <rect x="170" y="106" width="44" height="44" rx="7" fill="#FFFFFF" stroke="#8B5CF6"/>
    <path d="M170 124h44" stroke="#C4B5FD" stroke-width="2.5"/>
    <rect x="90" y="58" width="38" height="38" rx="7" fill="url(#deep)" stroke="none"/>
    <rect x="152" y="66" width="30" height="30" rx="7" fill="#FFFFFF" stroke="#8B5CF6"/>
    <path d="M226 88V50" stroke="#22C55E"/>
    <path d="M218 58l8-8 8 8" stroke="#22C55E"/>
    <path d="M248 50v38" stroke="#F43F5E"/>
    <path d="M240 80l8 8 8-8" stroke="#F43F5E"/>

    <circle cx="58" cy="46" r="5" fill="#C4B5FD" stroke="none" opacity=".85"/>
    <circle cx="276" cy="168" r="4" fill="#8B5CF6" stroke="none" opacity=".6"/>
    <path d="M44 58l4 8-8-4z" fill="#F59E0B" stroke="none" opacity=".9"/>
  </g>
</svg>
